<svg width="30" height="30" viewBox="0 0 30 30" fill="none" xmlns="http://www.w3.org/2000/svg">
<g clip-path="url(#clip0_195722_38)">
<path d="M15 28.5667C15.5249 28.5547 16.0287 28.3573 16.4222 28.0096C16.8156 27.6619 17.0734 27.1862 17.15 26.6667H12.7667C12.8454 27.2003 13.1153 27.6872 13.5261 28.0367C13.9369 28.3862 14.4607 28.5745 15 28.5667Z" fill="black"/>
<path d="M27.0917 23.1918C26.2881 22.4754 25.5846 21.6541 25 20.7501C24.3619 19.5022 23.9794 18.1394 23.875 16.7418V12.6251C23.8716 12.125 23.827 11.6261 23.7417 11.1334C23.0858 11.0023 22.4554 10.7659 21.875 10.4334C22.0963 11.1458 22.2086 11.8875 22.2084 12.6334V16.7501C22.3105 18.4551 22.7795 20.118 23.5834 21.6251C24.1587 22.5368 24.8413 23.3761 25.6167 24.1251H4.27502C5.05036 23.3761 5.73302 22.5368 6.30835 21.6251C7.1122 20.118 7.58121 18.4551 7.68335 16.7501V12.6251C7.67897 11.6607 7.86486 10.7048 8.23039 9.81235C8.59592 8.91987 9.1339 8.10825 9.81353 7.42397C10.4932 6.73969 11.3011 6.19619 12.1911 5.82459C13.0811 5.453 14.0356 5.2606 15 5.25842C16.4115 5.25954 17.7913 5.67696 18.9667 6.45842C18.8371 5.98257 18.7644 5.49305 18.75 5.00008V4.47508C17.8799 4.04705 16.9451 3.76549 15.9834 3.64175V2.59175C15.9834 2.29669 15.8661 2.01373 15.6575 1.80509C15.4489 1.59646 15.1659 1.47925 14.8709 1.47925C14.5758 1.47925 14.2928 1.59646 14.0842 1.80509C13.8756 2.01373 13.7584 2.29669 13.7584 2.59175V3.68342C11.6048 3.98721 9.63383 5.05987 8.20937 6.70336C6.78491 8.34685 6.00313 10.4502 6.00835 12.6251V16.7418C5.90398 18.1394 5.5215 19.5022 4.88335 20.7501C4.30909 21.652 3.61685 22.4732 2.82502 23.1918C2.73613 23.2698 2.66489 23.366 2.61603 23.4737C2.56718 23.5815 2.54184 23.6984 2.54169 23.8168V24.9501C2.54169 25.1711 2.62948 25.3831 2.78576 25.5393C2.94204 25.6956 3.15401 25.7834 3.37502 25.7834H26.5417C26.7627 25.7834 26.9747 25.6956 27.1309 25.5393C27.2872 25.3831 27.375 25.1711 27.375 24.9501V23.8168C27.3749 23.6984 27.3495 23.5815 27.3007 23.4737C27.2518 23.366 27.1806 23.2698 27.0917 23.1918Z" fill="black"/>
<path d="M22.9166 14.1667C26.8287 14.1667 30 10.9954 30 7.08333C30 3.17132 26.8287 0 22.9166 0C19.0046 0 15.8333 3.17132 15.8333 7.08333C15.8333 10.9954 19.0046 14.1667 22.9166 14.1667Z" fill="#FF0000"/>
</g>
<defs>
<clipPath id="clip0_195722_38">
<rect width="30" height="30" fill="white"/>
</clipPath>
</defs>
</svg>
