<svg width="29" height="29" viewBox="0 0 29 29" fill="none" xmlns="http://www.w3.org/2000/svg">
<path d="M13.1547 4.06814C14.8997 4.06654 16.6059 4.58252 18.0575 5.5508C19.5091 6.51907 20.641 7.89614 21.3098 9.5078C21.9787 11.1195 22.1545 12.8933 21.8151 14.6049C21.4757 16.3165 20.6362 17.889 19.4029 19.1234C18.1696 20.3578 16.5979 21.1987 14.8866 21.5397C13.1753 21.8807 11.4013 21.7065 9.78905 21.0391C8.17679 20.3717 6.79869 19.2411 5.82908 17.7904C4.85948 16.3396 4.34194 14.6339 4.34194 12.889C4.35252 10.5542 5.28415 8.31794 6.93435 6.66623C8.58455 5.01452 10.82 4.08085 13.1547 4.06814ZM13.1547 2.41675C11.0835 2.41675 9.05882 3.03093 7.33667 4.18164C5.61452 5.33234 4.27227 6.96788 3.47965 8.88142C2.68703 10.795 2.47965 12.9006 2.88372 14.932C3.28779 16.9634 4.28518 18.8294 5.74974 20.2939C7.21431 21.7585 9.08028 22.7559 11.1117 23.16C13.1431 23.564 15.2487 23.3567 17.1623 22.564C19.0758 21.7714 20.7114 20.4292 21.8621 18.707C23.0128 16.9849 23.6269 14.9602 23.6269 12.889C23.6269 10.1116 22.5236 7.44791 20.5597 5.48399C18.5958 3.52007 15.9321 2.41675 13.1547 2.41675Z" fill="#9A9A9A"/>
<path d="M28.1945 26.8171L22.2575 20.8398L21.1136 21.9757L27.0506 27.9529C27.1251 28.028 27.2138 28.0877 27.3114 28.1285C27.4091 28.1694 27.5138 28.1906 27.6197 28.191C27.7255 28.1914 27.8304 28.1709 27.9283 28.1307C28.0262 28.0906 28.1153 28.0315 28.1904 27.9569C28.2655 27.8823 28.3252 27.7937 28.3661 27.6961C28.4069 27.5984 28.4281 27.4937 28.4285 27.3878C28.4289 27.282 28.4084 27.1771 28.3682 27.0792C28.3281 26.9812 28.269 26.8922 28.1945 26.8171Z" fill="#9A9A9A"/>
</svg>
