<svg width="35" height="35" viewBox="0 0 35 35" fill="none" xmlns="http://www.w3.org/2000/svg">
<path d="M17.5 23.3332C19.1041 23.3332 20.4166 24.6458 20.4166 26.2499C20.4166 27.8541 19.1041 29.1666 17.5 29.1666C15.8958 29.1666 14.5833 27.8541 14.5833 26.2499C14.5833 24.6458 15.8958 23.3332 17.5 23.3332ZM17.5 14.5833C19.1041 14.5833 20.4166 15.8958 20.4166 17.4999C20.4166 19.1041 19.1041 20.4166 17.5 20.4166C15.8958 20.4166 14.5833 19.1041 14.5833 17.4999C14.5833 15.8958 15.8958 14.5833 17.5 14.5833ZM17.5 5.83325C19.1041 5.83325 20.4166 7.14575 20.4166 8.74992C20.4166 10.3541 19.1041 11.6666 17.5 11.6666C15.8958 11.6666 14.5833 10.3541 14.5833 8.74992C14.5833 7.14575 15.8958 5.83325 17.5 5.83325ZM8.74998 23.3332C10.3541 23.3332 11.6666 24.6458 11.6666 26.2499C11.6666 27.8541 10.3541 29.1666 8.74998 29.1666C7.14581 29.1666 5.83331 27.8541 5.83331 26.2499C5.83331 24.6458 7.14581 23.3332 8.74998 23.3332ZM8.74998 14.5833C10.3541 14.5833 11.6666 15.8958 11.6666 17.4999C11.6666 19.1041 10.3541 20.4166 8.74998 20.4166C7.14581 20.4166 5.83331 19.1041 5.83331 17.4999C5.83331 15.8958 7.14581 14.5833 8.74998 14.5833ZM8.74998 5.83325C10.3541 5.83325 11.6666 7.14575 11.6666 8.74992C11.6666 10.3541 10.3541 11.6666 8.74998 11.6666C7.14581 11.6666 5.83331 10.3541 5.83331 8.74992C5.83331 7.14575 7.14581 5.83325 8.74998 5.83325ZM26.25 23.3332C27.8541 23.3332 29.1666 24.6458 29.1666 26.2499C29.1666 27.8541 27.8541 29.1666 26.25 29.1666C24.6458 29.1666 23.3333 27.8541 23.3333 26.2499C23.3333 24.6458 24.6458 23.3332 26.25 23.3332ZM26.25 14.5833C27.8541 14.5833 29.1666 15.8958 29.1666 17.4999C29.1666 19.1041 27.8541 20.4166 26.25 20.4166C24.6458 20.4166 23.3333 19.1041 23.3333 17.4999C23.3333 15.8958 24.6458 14.5833 26.25 14.5833ZM26.25 5.83325C27.8541 5.83325 29.1666 7.14575 29.1666 8.74992C29.1666 10.3541 27.8541 11.6666 26.25 11.6666C24.6458 11.6666 23.3333 10.3541 23.3333 8.74992C23.3333 7.14575 24.6458 5.83325 26.25 5.83325Z" fill="black"/>
</svg>
