<svg width="30" height="30" viewBox="0 0 30 30" fill="none" xmlns="http://www.w3.org/2000/svg">
<path d="M26.25 15C26.25 8.78906 21.2109 3.75 15 3.75C8.78906 3.75 3.75 8.78906 3.75 15C3.75 21.2109 8.78906 26.25 15 26.25C21.2109 26.25 26.25 21.2109 26.25 15Z" stroke="black" stroke-width="2" stroke-miterlimit="10"/>
<path d="M20.5471 8.84363L13.6799 11.5905C13.2082 11.7791 12.7798 12.0616 12.4207 12.4207C12.0615 12.7799 11.779 13.2083 11.5904 13.68L8.84355 20.5471C8.80945 20.6323 8.80111 20.7256 8.81954 20.8155C8.83798 20.9054 8.8824 20.9879 8.94728 21.0528C9.01216 21.1177 9.09465 21.1621 9.18454 21.1805C9.27442 21.199 9.36774 21.1906 9.45293 21.1565L16.3201 18.4096C16.7917 18.221 17.2201 17.9386 17.5793 17.5794C17.9385 17.2202 18.221 16.7918 18.4096 16.3202L21.1564 9.453C21.1905 9.36782 21.1989 9.2745 21.1804 9.18461C21.162 9.09473 21.1176 9.01223 21.0527 8.94735C20.9878 8.88247 20.9053 8.83806 20.8155 8.81962C20.7256 8.80118 20.6323 8.80953 20.5471 8.84363ZM15 16.4063C14.7219 16.4063 14.45 16.3238 14.2187 16.1693C13.9875 16.0148 13.8072 15.7952 13.7008 15.5382C13.5944 15.2813 13.5665 14.9985 13.6208 14.7257C13.675 14.4529 13.809 14.2024 14.0056 14.0057C14.2023 13.809 14.4529 13.6751 14.7257 13.6208C14.9984 13.5666 15.2812 13.5944 15.5381 13.7009C15.7951 13.8073 16.0147 13.9875 16.1693 14.2188C16.3238 14.4501 16.4062 14.7219 16.4062 15.0001C16.4062 15.373 16.2581 15.7307 15.9944 15.9944C15.7306 16.2582 15.373 16.4063 15 16.4063Z" fill="black"/>
</svg>
