<svg width="94" height="21" viewBox="0 0 94 21" fill="none" xmlns="http://www.w3.org/2000/svg">
<path d="M29.3549 3.24595C29.1827 2.61852 28.8468 2.04651 28.3807 1.58691C27.9145 1.1273 27.3344 0.796134 26.6981 0.626379C24.3685 0 14.9935 0 14.9935 0C14.9935 0 5.61805 0.0190086 3.2888 0.645388C2.65252 0.815171 2.07245 1.14635 1.60635 1.60596C1.14025 2.06556 0.804383 2.63755 0.6322 3.26496C-0.0724329 7.34638 -0.345804 13.5651 0.651477 17.483C0.82366 18.1105 1.15952 18.6824 1.62563 19.142C2.09173 19.6016 2.6718 19.9328 3.30808 20.1026C5.63752 20.729 15.0127 20.729 15.0127 20.729C15.0127 20.729 24.3879 20.729 26.7174 20.1026C27.3537 19.9328 27.9337 19.6016 28.3998 19.142C28.8659 18.6824 29.2018 18.1105 29.374 17.483C30.117 13.396 30.3461 7.18109 29.3547 3.24613L29.3549 3.24595Z" fill="#FF0000"/>
<path d="M12.0094 14.8065L19.7868 10.3647L12.0094 5.92261V14.8065Z" fill="white"/>
<path d="M90.188 6.01771C91.2083 6.01771 91.9783 6.20743 92.5173 6.56805C93.0563 6.92885 93.4415 7.49821 93.6725 8.27666C93.9034 9.05492 93.9996 10.1178 93.9996 11.4846V13.7057H89.0521V14.3889L89.1293 16.2682C89.1869 16.6859 89.2833 16.9897 89.4371 17.1794C89.5914 17.3693 89.8414 17.4642 90.1688 17.4642C90.6116 17.4642 90.9197 17.2934 91.0735 16.9518C91.2468 16.61 91.3237 16.0405 91.343 15.2622L93.9034 15.4141C93.9227 15.528 93.9227 15.6799 93.9227 15.8696C93.9227 17.0655 93.5954 17.9578 92.9216 18.5462C92.2478 19.1346 91.3237 19.4383 90.1109 19.4383C88.6479 19.4383 87.6276 18.9829 87.0501 18.0907C86.4727 17.1984 86.1646 15.7936 86.1646 13.9144V11.6175C86.2299 8.39053 86.8055 6.02712 90.188 6.01771ZM54.5929 6.26446V15.7747C54.5929 16.3443 54.6505 16.7619 54.7853 17.0087C55.0587 17.5364 55.7672 17.4015 56.1521 17.1416C56.3744 16.9934 56.5536 16.7906 56.6719 16.5532V6.26428H59.6173V19.2294H57.3071L57.0569 17.6349H56.9992C56.364 18.8308 55.4205 19.4382 54.1693 19.4382C52.2434 19.4334 51.7722 18.0652 51.66 16.6756L51.6526 16.5776C51.6388 16.3672 51.6306 16.1564 51.6282 15.9455V6.26446H54.5927H54.5929ZM69.782 6.26446V15.7747C69.782 16.3443 69.8396 16.7619 69.9744 17.0087C70.2479 17.5364 70.9562 17.4015 71.3412 17.1416C71.5635 16.9934 71.7426 16.7906 71.861 16.5532V6.26428H74.8064V19.2294H72.4962L72.246 17.6349H72.1883C71.5531 18.8308 70.6096 19.4382 69.3584 19.4382C67.4325 19.4334 66.9612 18.0652 66.8491 16.6756L66.8417 16.5776C66.8279 16.3672 66.8197 16.1564 66.8173 15.9455V6.26446H69.782ZM46.0453 6.01771C47.0079 6.01771 47.7972 6.20743 48.3748 6.60607C48.9522 7.00471 49.395 7.61226 49.6645 8.44737C49.934 9.28266 50.0688 10.4025 50.0688 11.7884V13.6675C50.0688 15.0533 49.934 16.1544 49.6645 16.9895C49.395 17.825 48.9714 18.4323 48.3748 18.831C47.7781 19.2106 46.9693 19.4193 45.9684 19.4193C44.9287 19.4383 44.1201 19.2296 43.5235 18.85C42.9268 18.4513 42.5031 17.8438 42.253 17.0087C42.0026 16.1734 41.8871 15.0723 41.8871 13.6867V11.8072C41.8871 10.4214 42.0219 9.28248 42.3106 8.44719C42.5994 7.59307 43.0421 6.98552 43.6582 6.60607C44.2742 6.22626 45.0635 6.01753 46.0453 6.01753V6.01771ZM79.4267 0.816406V7.6501H79.446C79.7155 7.1566 80.0619 6.75796 80.5433 6.45418C80.9928 6.15615 81.5224 5.99752 82.064 5.9987C82.7764 5.9987 83.3154 6.18842 83.7197 6.54904C84.1239 6.92885 84.4127 7.51722 84.5859 8.3335C84.7538 9.12426 84.8493 10.2179 84.8552 11.597L84.8554 11.7315V13.7816C84.8554 15.6987 84.6051 17.1225 84.143 18.0337C83.662 18.9448 82.9304 19.4005 81.9293 19.4005C81.3711 19.4005 80.8705 19.2676 80.4086 19.0209C80 18.7861 79.6612 18.4494 79.4263 18.0447L79.3881 17.9767H79.3305L79.0224 19.2106H76.5775V0.816587H79.4267V0.816406ZM67.6449 1.4808V3.83443H64.7188V19.2294H61.8312V3.83461H58.8859V1.48098H67.6451L67.6449 1.4808ZM35.8999 1.4808L35.9018 1.48804C35.9299 1.61133 36.3191 3.31758 36.7472 5.30552L36.781 5.46302L36.832 5.70108L36.8662 5.86093L36.8833 5.94113L36.9174 6.10189L36.9345 6.18245L36.9684 6.34375L37.018 6.57964C37.3072 7.95622 37.5831 9.33679 37.7482 10.3267H37.8253C37.9833 9.43872 38.213 8.30236 38.4579 7.14211L38.5222 6.83906C38.5545 6.68735 38.5868 6.53565 38.6195 6.3843L38.6698 6.1495C39.0024 4.61194 39.3449 3.0765 39.6974 1.54326L39.7029 1.51882L39.7117 1.4808H42.6571L39.2496 13.4589V19.2106H36.3428V13.4778H36.3235L32.9545 1.48062H35.8999V1.4808ZM45.9875 8.02972C45.5832 8.02972 45.3137 8.23864 45.1406 8.67529C44.9672 9.11177 44.8903 9.77616 44.8903 10.7065V14.7497C44.8903 15.6989 44.9672 16.4011 45.1213 16.8189C45.2753 17.2364 45.5641 17.4453 45.9875 17.4453C46.3918 17.4453 46.6805 17.2364 46.8539 16.8189C47.0272 16.4011 47.1041 15.6989 47.1041 14.7497V10.7063C47.1041 9.77616 47.027 9.09276 46.8539 8.67511C46.6805 8.23864 46.3918 8.02972 45.9875 8.02972ZM79.9464 8.40953C79.7118 8.62316 79.5449 8.88656 79.4456 9.21586L79.4267 9.28266V16.6479C79.6654 17.0465 80.0043 17.3123 80.601 17.3313C80.909 17.3313 81.1591 17.2174 81.3519 16.9897C81.5443 16.7619 81.679 16.3821 81.7559 15.8506C81.8299 15.3404 81.8685 14.6377 81.8714 13.7426V11.9403C81.8714 10.9152 81.8329 10.137 81.7752 9.58644C81.6981 9.03591 81.6021 8.63728 81.4288 8.40953C81.0937 7.93486 80.37 7.94066 79.9464 8.40953ZM90.1304 7.97288C89.803 7.99189 89.5719 8.08675 89.4371 8.25765C89.2833 8.44737 89.1869 8.73214 89.1293 9.14979C89.0725 9.55892 89.0531 10.9891 89.0521 11.0463V11.9783H91.2083V11.1564V11.1721C91.207 11.4594 91.2009 11.0054 91.1877 10.448L91.1859 10.373C91.1737 9.88316 91.1561 9.33697 91.1313 9.14979C91.0735 8.71313 90.9771 8.40935 90.8233 8.23864C90.6692 8.06774 90.4383 7.97288 90.1302 7.97288H90.1304Z" fill="#282828"/>
</svg>
